<mxfile host="app.diagrams.net" modified="2024-02-01T21:05:24.825Z" agent="Mozilla/5.0 (Windows NT 10.0; Win64; x64) AppleWebKit/537.36 (KHTML, like Gecko) Chrome/120.0.0.0 Safari/537.36 OPR/106.0.0.0" etag="tWwQMp9FfAzUixwwTJB6" version="23.1.0" type="github">
  <diagram name="Page-1" id="Sn4nD9zG-_jlpiyMKoH1">
    <mxGraphModel dx="1345" dy="723" grid="1" gridSize="10" guides="1" tooltips="1" connect="1" arrows="1" fold="1" page="1" pageScale="1" pageWidth="850" pageHeight="1100" math="0" shadow="0">
      <root>
        <mxCell id="0" />
        <mxCell id="1" parent="0" />
        <mxCell id="K-MZXN58Cj5F6070ULld-1" value="Shop" style="rounded=0;whiteSpace=wrap;html=1;fillColor=#60a917;fontColor=#ffffff;strokeColor=#2D7600;" parent="1" vertex="1">
          <mxGeometry x="360" y="190" width="120" height="60" as="geometry" />
        </mxCell>
        <mxCell id="K-MZXN58Cj5F6070ULld-3" value="" style="endArrow=none;html=1;rounded=0;exitX=0.5;exitY=1;exitDx=0;exitDy=0;" parent="1" source="K-MZXN58Cj5F6070ULld-4" edge="1">
          <mxGeometry width="50" height="50" relative="1" as="geometry">
            <mxPoint x="332.5" y="160" as="sourcePoint" />
            <mxPoint x="360" y="190" as="targetPoint" />
          </mxGeometry>
        </mxCell>
        <mxCell id="K-MZXN58Cj5F6070ULld-4" value="SLD" style="ellipse;whiteSpace=wrap;html=1;fillColor=#60a917;fontColor=#ffffff;strokeColor=#2D7600;" parent="1" vertex="1">
          <mxGeometry x="280" y="120" width="80" height="30" as="geometry" />
        </mxCell>
        <mxCell id="K-MZXN58Cj5F6070ULld-6" value="Sname" style="ellipse;whiteSpace=wrap;html=1;fillColor=#60a917;fontColor=#ffffff;strokeColor=#2D7600;" parent="1" vertex="1">
          <mxGeometry x="385" y="120" width="80" height="30" as="geometry" />
        </mxCell>
        <mxCell id="K-MZXN58Cj5F6070ULld-9" value="" style="endArrow=none;html=1;rounded=0;exitX=0.5;exitY=0;exitDx=0;exitDy=0;" parent="1" source="K-MZXN58Cj5F6070ULld-1" target="K-MZXN58Cj5F6070ULld-6" edge="1">
          <mxGeometry width="50" height="50" relative="1" as="geometry">
            <mxPoint x="400" y="200" as="sourcePoint" />
            <mxPoint x="450" y="150" as="targetPoint" />
          </mxGeometry>
        </mxCell>
        <mxCell id="K-MZXN58Cj5F6070ULld-10" value="Saddress" style="ellipse;whiteSpace=wrap;html=1;fillColor=#60a917;fontColor=#ffffff;strokeColor=#2D7600;" parent="1" vertex="1">
          <mxGeometry x="500" y="120" width="80" height="30" as="geometry" />
        </mxCell>
        <mxCell id="K-MZXN58Cj5F6070ULld-11" value="" style="endArrow=none;html=1;rounded=0;entryX=0.5;entryY=1;entryDx=0;entryDy=0;" parent="1" target="K-MZXN58Cj5F6070ULld-10" edge="1">
          <mxGeometry width="50" height="50" relative="1" as="geometry">
            <mxPoint x="480" y="200" as="sourcePoint" />
            <mxPoint x="510" y="160" as="targetPoint" />
          </mxGeometry>
        </mxCell>
        <mxCell id="K-MZXN58Cj5F6070ULld-13" value="Sdate" style="ellipse;whiteSpace=wrap;html=1;fillColor=#60a917;fontColor=#ffffff;strokeColor=#2D7600;" parent="1" vertex="1">
          <mxGeometry x="210" y="170" width="80" height="30" as="geometry" />
        </mxCell>
        <mxCell id="K-MZXN58Cj5F6070ULld-14" value="" style="endArrow=none;html=1;rounded=0;exitX=1;exitY=0.5;exitDx=0;exitDy=0;" parent="1" source="K-MZXN58Cj5F6070ULld-13" edge="1">
          <mxGeometry width="50" height="50" relative="1" as="geometry">
            <mxPoint x="320" y="250" as="sourcePoint" />
            <mxPoint x="360" y="200" as="targetPoint" />
          </mxGeometry>
        </mxCell>
        <mxCell id="K-MZXN58Cj5F6070ULld-16" value="URL" style="ellipse;whiteSpace=wrap;html=1;fillColor=#60a917;fontColor=#ffffff;strokeColor=#2D7600;" parent="1" vertex="1">
          <mxGeometry x="570" y="140" width="80" height="30" as="geometry" />
        </mxCell>
        <mxCell id="K-MZXN58Cj5F6070ULld-19" value="TELNO" style="ellipse;whiteSpace=wrap;html=1;fillColor=#60a917;fontColor=#ffffff;strokeColor=#2D7600;" parent="1" vertex="1">
          <mxGeometry x="620" y="170" width="80" height="30" as="geometry" />
        </mxCell>
        <mxCell id="K-MZXN58Cj5F6070ULld-21" value="" style="endArrow=none;html=1;rounded=0;entryX=1;entryY=0.5;entryDx=0;entryDy=0;exitX=0.5;exitY=1;exitDx=0;exitDy=0;" parent="1" source="K-MZXN58Cj5F6070ULld-16" target="K-MZXN58Cj5F6070ULld-1" edge="1">
          <mxGeometry width="50" height="50" relative="1" as="geometry">
            <mxPoint x="400" y="310" as="sourcePoint" />
            <mxPoint x="450" y="260" as="targetPoint" />
          </mxGeometry>
        </mxCell>
        <mxCell id="K-MZXN58Cj5F6070ULld-22" value="" style="endArrow=none;html=1;rounded=0;entryX=1.01;entryY=0.64;entryDx=0;entryDy=0;exitX=0.5;exitY=1;exitDx=0;exitDy=0;entryPerimeter=0;" parent="1" source="K-MZXN58Cj5F6070ULld-19" target="K-MZXN58Cj5F6070ULld-1" edge="1">
          <mxGeometry width="50" height="50" relative="1" as="geometry">
            <mxPoint x="640" y="190" as="sourcePoint" />
            <mxPoint x="490" y="230" as="targetPoint" />
          </mxGeometry>
        </mxCell>
        <mxCell id="K-MZXN58Cj5F6070ULld-24" value="Employee" style="rounded=0;whiteSpace=wrap;html=1;fillColor=#60a917;fontColor=#ffffff;strokeColor=#2D7600;" parent="1" vertex="1">
          <mxGeometry x="180" y="430" width="120" height="60" as="geometry" />
        </mxCell>
        <mxCell id="K-MZXN58Cj5F6070ULld-25" value="" style="endArrow=none;html=1;rounded=0;entryX=0.25;entryY=1;entryDx=0;entryDy=0;exitX=0.5;exitY=0;exitDx=0;exitDy=0;" parent="1" source="K-MZXN58Cj5F6070ULld-24" target="K-MZXN58Cj5F6070ULld-1" edge="1">
          <mxGeometry width="50" height="50" relative="1" as="geometry">
            <mxPoint x="380" y="320" as="sourcePoint" />
            <mxPoint x="430" y="270" as="targetPoint" />
          </mxGeometry>
        </mxCell>
        <mxCell id="K-MZXN58Cj5F6070ULld-27" value="SSN" style="ellipse;whiteSpace=wrap;html=1;fillColor=#60a917;fontColor=#ffffff;strokeColor=#2D7600;" parent="1" vertex="1">
          <mxGeometry x="90" y="350" width="80" height="30" as="geometry" />
        </mxCell>
        <mxCell id="K-MZXN58Cj5F6070ULld-30" value="" style="endArrow=none;html=1;rounded=0;exitX=0;exitY=0;exitDx=0;exitDy=0;entryX=0.5;entryY=1;entryDx=0;entryDy=0;" parent="1" source="K-MZXN58Cj5F6070ULld-24" target="K-MZXN58Cj5F6070ULld-27" edge="1">
          <mxGeometry width="50" height="50" relative="1" as="geometry">
            <mxPoint x="90" y="430" as="sourcePoint" />
            <mxPoint x="140" y="380" as="targetPoint" />
          </mxGeometry>
        </mxCell>
        <mxCell id="K-MZXN58Cj5F6070ULld-31" value="Sdate" style="ellipse;whiteSpace=wrap;html=1;fillColor=#60a917;fontColor=#ffffff;strokeColor=#2D7600;" parent="1" vertex="1">
          <mxGeometry x="30" y="400" width="80" height="30" as="geometry" />
        </mxCell>
        <mxCell id="K-MZXN58Cj5F6070ULld-32" value="Edate" style="ellipse;whiteSpace=wrap;html=1;fillColor=#60a917;fontColor=#ffffff;strokeColor=#2D7600;" parent="1" vertex="1">
          <mxGeometry x="30" y="450" width="80" height="30" as="geometry" />
        </mxCell>
        <mxCell id="K-MZXN58Cj5F6070ULld-33" value="BDate" style="ellipse;whiteSpace=wrap;html=1;fillColor=#60a917;fontColor=#ffffff;strokeColor=#2D7600;" parent="1" vertex="1">
          <mxGeometry x="40" y="510" width="80" height="30" as="geometry" />
        </mxCell>
        <mxCell id="K-MZXN58Cj5F6070ULld-34" value="Name" style="ellipse;whiteSpace=wrap;html=1;fillColor=#60a917;fontColor=#ffffff;strokeColor=#2D7600;" parent="1" vertex="1">
          <mxGeometry x="70" y="560" width="80" height="30" as="geometry" />
        </mxCell>
        <mxCell id="K-MZXN58Cj5F6070ULld-35" value="Address" style="ellipse;whiteSpace=wrap;html=1;fillColor=#60a917;fontColor=#ffffff;strokeColor=#2D7600;" parent="1" vertex="1">
          <mxGeometry x="110" y="610" width="80" height="30" as="geometry" />
        </mxCell>
        <mxCell id="K-MZXN58Cj5F6070ULld-37" value="" style="endArrow=none;html=1;rounded=0;exitX=0.5;exitY=0;exitDx=0;exitDy=0;entryX=0.25;entryY=1;entryDx=0;entryDy=0;" parent="1" source="K-MZXN58Cj5F6070ULld-35" target="K-MZXN58Cj5F6070ULld-24" edge="1">
          <mxGeometry width="50" height="50" relative="1" as="geometry">
            <mxPoint x="280" y="660" as="sourcePoint" />
            <mxPoint x="330" y="610" as="targetPoint" />
          </mxGeometry>
        </mxCell>
        <mxCell id="K-MZXN58Cj5F6070ULld-38" value="" style="endArrow=none;html=1;rounded=0;entryX=0;entryY=1;entryDx=0;entryDy=0;exitX=0.5;exitY=0;exitDx=0;exitDy=0;" parent="1" source="K-MZXN58Cj5F6070ULld-34" target="K-MZXN58Cj5F6070ULld-24" edge="1">
          <mxGeometry width="50" height="50" relative="1" as="geometry">
            <mxPoint x="130" y="560" as="sourcePoint" />
            <mxPoint x="180" y="510" as="targetPoint" />
          </mxGeometry>
        </mxCell>
        <mxCell id="K-MZXN58Cj5F6070ULld-39" value="" style="endArrow=none;html=1;rounded=0;exitX=1;exitY=0;exitDx=0;exitDy=0;entryX=0;entryY=0.75;entryDx=0;entryDy=0;" parent="1" source="K-MZXN58Cj5F6070ULld-33" target="K-MZXN58Cj5F6070ULld-24" edge="1">
          <mxGeometry width="50" height="50" relative="1" as="geometry">
            <mxPoint x="130" y="500" as="sourcePoint" />
            <mxPoint x="180" y="450" as="targetPoint" />
          </mxGeometry>
        </mxCell>
        <mxCell id="K-MZXN58Cj5F6070ULld-40" value="" style="endArrow=none;html=1;rounded=0;entryX=1;entryY=0.5;entryDx=0;entryDy=0;exitX=0;exitY=0.5;exitDx=0;exitDy=0;" parent="1" source="K-MZXN58Cj5F6070ULld-24" target="K-MZXN58Cj5F6070ULld-32" edge="1">
          <mxGeometry width="50" height="50" relative="1" as="geometry">
            <mxPoint x="110" y="490" as="sourcePoint" />
            <mxPoint x="160" y="440" as="targetPoint" />
          </mxGeometry>
        </mxCell>
        <mxCell id="K-MZXN58Cj5F6070ULld-41" value="" style="endArrow=none;html=1;rounded=0;exitX=1;exitY=0.5;exitDx=0;exitDy=0;entryX=0;entryY=0.25;entryDx=0;entryDy=0;" parent="1" source="K-MZXN58Cj5F6070ULld-31" target="K-MZXN58Cj5F6070ULld-24" edge="1">
          <mxGeometry width="50" height="50" relative="1" as="geometry">
            <mxPoint x="120" y="450" as="sourcePoint" />
            <mxPoint x="170" y="400" as="targetPoint" />
          </mxGeometry>
        </mxCell>
        <mxCell id="K-MZXN58Cj5F6070ULld-43" value="Works For" style="rhombus;whiteSpace=wrap;html=1;fillColor=#60a917;fontColor=#ffffff;strokeColor=#2D7600;" parent="1" vertex="1">
          <mxGeometry x="280" y="300" width="80" height="80" as="geometry" />
        </mxCell>
        <mxCell id="nZfnOuneFazvMQ7j1-I3-1" value="Sells" style="rhombus;whiteSpace=wrap;html=1;fillColor=#60a917;strokeColor=#2D7600;fontColor=#ffffff;" vertex="1" parent="1">
          <mxGeometry x="520" y="300" width="80" height="80" as="geometry" />
        </mxCell>
        <mxCell id="nZfnOuneFazvMQ7j1-I3-2" value="" style="endArrow=none;html=1;rounded=0;entryX=0;entryY=0;entryDx=0;entryDy=0;" edge="1" parent="1" source="K-MZXN58Cj5F6070ULld-1" target="nZfnOuneFazvMQ7j1-I3-1">
          <mxGeometry width="50" height="50" relative="1" as="geometry">
            <mxPoint x="440" y="360" as="sourcePoint" />
            <mxPoint x="490" y="310" as="targetPoint" />
          </mxGeometry>
        </mxCell>
        <mxCell id="nZfnOuneFazvMQ7j1-I3-3" value="Items" style="rounded=0;whiteSpace=wrap;html=1;fillColor=#60a917;fontColor=#ffffff;strokeColor=#2D7600;" vertex="1" parent="1">
          <mxGeometry x="610" y="420" width="120" height="60" as="geometry" />
        </mxCell>
        <mxCell id="nZfnOuneFazvMQ7j1-I3-4" value="" style="endArrow=none;html=1;rounded=0;exitX=0.25;exitY=0;exitDx=0;exitDy=0;entryX=1;entryY=1;entryDx=0;entryDy=0;" edge="1" parent="1" source="nZfnOuneFazvMQ7j1-I3-3" target="nZfnOuneFazvMQ7j1-I3-1">
          <mxGeometry width="50" height="50" relative="1" as="geometry">
            <mxPoint x="630" y="400" as="sourcePoint" />
            <mxPoint x="680" y="350" as="targetPoint" />
          </mxGeometry>
        </mxCell>
        <mxCell id="nZfnOuneFazvMQ7j1-I3-5" value="Sprice" style="ellipse;whiteSpace=wrap;html=1;fillColor=#60a917;fontColor=#ffffff;strokeColor=#2D7600;" vertex="1" parent="1">
          <mxGeometry x="410" y="400" width="80" height="30" as="geometry" />
        </mxCell>
        <mxCell id="nZfnOuneFazvMQ7j1-I3-6" value="Scount" style="ellipse;whiteSpace=wrap;html=1;fillColor=#60a917;fontColor=#ffffff;strokeColor=#2D7600;" vertex="1" parent="1">
          <mxGeometry x="480" y="440" width="80" height="30" as="geometry" />
        </mxCell>
        <mxCell id="nZfnOuneFazvMQ7j1-I3-9" value="Dealers" style="rounded=0;whiteSpace=wrap;html=1;fillColor=#60a917;fontColor=#ffffff;strokeColor=#2D7600;" vertex="1" parent="1">
          <mxGeometry x="820" y="160" width="120" height="60" as="geometry" />
        </mxCell>
        <mxCell id="nZfnOuneFazvMQ7j1-I3-10" value="Supply" style="rhombus;whiteSpace=wrap;html=1;fillColor=#60a917;fontColor=#ffffff;strokeColor=#2D7600;" vertex="1" parent="1">
          <mxGeometry x="730" y="310" width="80" height="80" as="geometry" />
        </mxCell>
        <mxCell id="nZfnOuneFazvMQ7j1-I3-11" value="" style="endArrow=none;html=1;rounded=0;exitX=0.5;exitY=1;exitDx=0;exitDy=0;" edge="1" parent="1" source="nZfnOuneFazvMQ7j1-I3-9" target="nZfnOuneFazvMQ7j1-I3-10">
          <mxGeometry width="50" height="50" relative="1" as="geometry">
            <mxPoint x="840" y="630" as="sourcePoint" />
            <mxPoint x="890" y="580" as="targetPoint" />
          </mxGeometry>
        </mxCell>
        <mxCell id="nZfnOuneFazvMQ7j1-I3-12" value="" style="endArrow=none;html=1;rounded=0;entryX=0.75;entryY=0;entryDx=0;entryDy=0;" edge="1" parent="1" source="nZfnOuneFazvMQ7j1-I3-10" target="nZfnOuneFazvMQ7j1-I3-3">
          <mxGeometry width="50" height="50" relative="1" as="geometry">
            <mxPoint x="810" y="450" as="sourcePoint" />
            <mxPoint x="860" y="400" as="targetPoint" />
          </mxGeometry>
        </mxCell>
        <mxCell id="nZfnOuneFazvMQ7j1-I3-14" value="Dname" style="ellipse;whiteSpace=wrap;html=1;fillColor=#60a917;fontColor=#ffffff;strokeColor=#2D7600;" vertex="1" parent="1">
          <mxGeometry x="840" y="60" width="80" height="30" as="geometry" />
        </mxCell>
        <mxCell id="nZfnOuneFazvMQ7j1-I3-16" value="Etype" style="ellipse;whiteSpace=wrap;html=1;fillColor=#60a917;fontColor=#ffffff;strokeColor=#2D7600;" vertex="1" parent="1">
          <mxGeometry x="210" y="610" width="80" height="30" as="geometry" />
        </mxCell>
        <mxCell id="nZfnOuneFazvMQ7j1-I3-17" value="" style="endArrow=none;html=1;rounded=0;exitX=0.5;exitY=0;exitDx=0;exitDy=0;entryX=0.5;entryY=1;entryDx=0;entryDy=0;" edge="1" parent="1" source="nZfnOuneFazvMQ7j1-I3-16" target="K-MZXN58Cj5F6070ULld-24">
          <mxGeometry width="50" height="50" relative="1" as="geometry">
            <mxPoint x="230" y="580" as="sourcePoint" />
            <mxPoint x="280" y="530" as="targetPoint" />
          </mxGeometry>
        </mxCell>
        <mxCell id="nZfnOuneFazvMQ7j1-I3-18" value="Fulltime" style="rounded=0;whiteSpace=wrap;html=1;fillColor=#60a917;fontColor=#ffffff;strokeColor=#2D7600;" vertex="1" parent="1">
          <mxGeometry x="150" y="730" width="90" height="40" as="geometry" />
        </mxCell>
        <mxCell id="nZfnOuneFazvMQ7j1-I3-19" value="&amp;nbsp;Temporary&amp;nbsp;" style="rounded=0;whiteSpace=wrap;html=1;fillColor=#60a917;fontColor=#ffffff;strokeColor=#2D7600;" vertex="1" parent="1">
          <mxGeometry x="275" y="730" width="90" height="40" as="geometry" />
        </mxCell>
        <mxCell id="nZfnOuneFazvMQ7j1-I3-20" value="Intern" style="rounded=0;whiteSpace=wrap;html=1;fillColor=#60a917;fontColor=#ffffff;strokeColor=#2D7600;" vertex="1" parent="1">
          <mxGeometry x="400" y="730" width="90" height="40" as="geometry" />
        </mxCell>
        <mxCell id="nZfnOuneFazvMQ7j1-I3-21" value="" style="endArrow=none;html=1;rounded=0;exitX=0.5;exitY=0;exitDx=0;exitDy=0;entryX=0;entryY=1;entryDx=0;entryDy=0;" edge="1" parent="1" source="nZfnOuneFazvMQ7j1-I3-18" target="nZfnOuneFazvMQ7j1-I3-16">
          <mxGeometry width="50" height="50" relative="1" as="geometry">
            <mxPoint x="220" y="700" as="sourcePoint" />
            <mxPoint x="270" y="650" as="targetPoint" />
          </mxGeometry>
        </mxCell>
        <mxCell id="nZfnOuneFazvMQ7j1-I3-22" value="" style="endArrow=none;html=1;rounded=0;exitX=0.5;exitY=0;exitDx=0;exitDy=0;entryX=0.5;entryY=1;entryDx=0;entryDy=0;" edge="1" parent="1" source="nZfnOuneFazvMQ7j1-I3-19" target="nZfnOuneFazvMQ7j1-I3-16">
          <mxGeometry width="50" height="50" relative="1" as="geometry">
            <mxPoint x="205" y="740" as="sourcePoint" />
            <mxPoint x="232" y="646" as="targetPoint" />
          </mxGeometry>
        </mxCell>
        <mxCell id="nZfnOuneFazvMQ7j1-I3-23" value="" style="endArrow=none;html=1;rounded=0;exitX=0.5;exitY=0;exitDx=0;exitDy=0;entryX=1;entryY=1;entryDx=0;entryDy=0;" edge="1" parent="1" source="nZfnOuneFazvMQ7j1-I3-20" target="nZfnOuneFazvMQ7j1-I3-16">
          <mxGeometry width="50" height="50" relative="1" as="geometry">
            <mxPoint x="330" y="740" as="sourcePoint" />
            <mxPoint x="260" y="650" as="targetPoint" />
          </mxGeometry>
        </mxCell>
        <mxCell id="nZfnOuneFazvMQ7j1-I3-24" value="Asalary" style="ellipse;whiteSpace=wrap;html=1;fillColor=#60a917;fontColor=#ffffff;strokeColor=#2D7600;" vertex="1" parent="1">
          <mxGeometry x="140" y="820" width="80" height="30" as="geometry" />
        </mxCell>
        <mxCell id="nZfnOuneFazvMQ7j1-I3-25" value="Hsalary" style="ellipse;whiteSpace=wrap;html=1;fillColor=#60a917;fontColor=#ffffff;strokeColor=#2D7600;" vertex="1" parent="1">
          <mxGeometry x="280" y="820" width="80" height="30" as="geometry" />
        </mxCell>
        <mxCell id="nZfnOuneFazvMQ7j1-I3-26" value="Itype" style="ellipse;whiteSpace=wrap;html=1;fillColor=#60a917;fontColor=#ffffff;strokeColor=#2D7600;" vertex="1" parent="1">
          <mxGeometry x="405" y="820" width="80" height="30" as="geometry" />
        </mxCell>
        <mxCell id="nZfnOuneFazvMQ7j1-I3-27" value="" style="endArrow=none;html=1;rounded=0;entryX=0.5;entryY=1;entryDx=0;entryDy=0;" edge="1" parent="1" source="nZfnOuneFazvMQ7j1-I3-24" target="nZfnOuneFazvMQ7j1-I3-18">
          <mxGeometry width="50" height="50" relative="1" as="geometry">
            <mxPoint x="180" y="799.2893218813452" as="sourcePoint" />
            <mxPoint x="180" y="749.2893218813452" as="targetPoint" />
          </mxGeometry>
        </mxCell>
        <mxCell id="nZfnOuneFazvMQ7j1-I3-28" value="" style="endArrow=none;html=1;rounded=0;entryX=0.5;entryY=1;entryDx=0;entryDy=0;exitX=0.5;exitY=0;exitDx=0;exitDy=0;" edge="1" parent="1" source="nZfnOuneFazvMQ7j1-I3-25" target="nZfnOuneFazvMQ7j1-I3-19">
          <mxGeometry width="50" height="50" relative="1" as="geometry">
            <mxPoint x="193" y="830" as="sourcePoint" />
            <mxPoint x="205" y="780" as="targetPoint" />
          </mxGeometry>
        </mxCell>
        <mxCell id="nZfnOuneFazvMQ7j1-I3-29" value="" style="endArrow=none;html=1;rounded=0;entryX=0.5;entryY=1;entryDx=0;entryDy=0;exitX=0.5;exitY=0;exitDx=0;exitDy=0;" edge="1" parent="1" source="nZfnOuneFazvMQ7j1-I3-26" target="nZfnOuneFazvMQ7j1-I3-20">
          <mxGeometry width="50" height="50" relative="1" as="geometry">
            <mxPoint x="203" y="840" as="sourcePoint" />
            <mxPoint x="215" y="790" as="targetPoint" />
          </mxGeometry>
        </mxCell>
        <mxCell id="nZfnOuneFazvMQ7j1-I3-31" value="dId" style="ellipse;whiteSpace=wrap;html=1;fillColor=#60a917;fontColor=#ffffff;strokeColor=#2D7600;" vertex="1" parent="1">
          <mxGeometry x="740" y="60" width="80" height="30" as="geometry" />
        </mxCell>
        <mxCell id="nZfnOuneFazvMQ7j1-I3-32" value="" style="endArrow=none;html=1;rounded=0;entryX=0.5;entryY=1;entryDx=0;entryDy=0;exitX=0.152;exitY=-0.001;exitDx=0;exitDy=0;exitPerimeter=0;" edge="1" parent="1" source="nZfnOuneFazvMQ7j1-I3-9" target="nZfnOuneFazvMQ7j1-I3-31">
          <mxGeometry width="50" height="50" relative="1" as="geometry">
            <mxPoint x="720" y="150" as="sourcePoint" />
            <mxPoint x="770" y="100" as="targetPoint" />
          </mxGeometry>
        </mxCell>
        <mxCell id="nZfnOuneFazvMQ7j1-I3-33" value="" style="endArrow=none;html=1;rounded=0;entryX=0.5;entryY=1;entryDx=0;entryDy=0;exitX=0.5;exitY=0;exitDx=0;exitDy=0;" edge="1" parent="1" source="nZfnOuneFazvMQ7j1-I3-9" target="nZfnOuneFazvMQ7j1-I3-14">
          <mxGeometry width="50" height="50" relative="1" as="geometry">
            <mxPoint x="848" y="170" as="sourcePoint" />
            <mxPoint x="790" y="100" as="targetPoint" />
          </mxGeometry>
        </mxCell>
        <mxCell id="nZfnOuneFazvMQ7j1-I3-34" value="DTelNo" style="ellipse;whiteSpace=wrap;html=1;fillColor=#60a917;fontColor=#ffffff;strokeColor=#2D7600;" vertex="1" parent="1">
          <mxGeometry x="940" y="60" width="80" height="30" as="geometry" />
        </mxCell>
        <mxCell id="nZfnOuneFazvMQ7j1-I3-35" value="" style="endArrow=none;html=1;rounded=0;entryX=0.5;entryY=1;entryDx=0;entryDy=0;exitX=0.75;exitY=0;exitDx=0;exitDy=0;" edge="1" parent="1" source="nZfnOuneFazvMQ7j1-I3-9" target="nZfnOuneFazvMQ7j1-I3-34">
          <mxGeometry width="50" height="50" relative="1" as="geometry">
            <mxPoint x="890" y="170" as="sourcePoint" />
            <mxPoint x="890" y="100" as="targetPoint" />
          </mxGeometry>
        </mxCell>
        <mxCell id="nZfnOuneFazvMQ7j1-I3-36" value="&lt;br&gt;Demail&lt;div&gt;&lt;br&gt;&lt;/div&gt;" style="ellipse;whiteSpace=wrap;html=1;fillColor=#60a917;fontColor=#ffffff;strokeColor=#2D7600;" vertex="1" parent="1">
          <mxGeometry x="1010" y="100" width="80" height="30" as="geometry" />
        </mxCell>
        <mxCell id="nZfnOuneFazvMQ7j1-I3-37" value="Daddress" style="ellipse;whiteSpace=wrap;html=1;fillColor=#60a917;fontColor=#ffffff;strokeColor=#2D7600;" vertex="1" parent="1">
          <mxGeometry x="1040" y="190" width="80" height="30" as="geometry" />
        </mxCell>
        <mxCell id="nZfnOuneFazvMQ7j1-I3-40" value="" style="endArrow=none;html=1;rounded=0;entryX=0;entryY=0.5;entryDx=0;entryDy=0;exitX=1;exitY=0.75;exitDx=0;exitDy=0;" edge="1" parent="1" source="nZfnOuneFazvMQ7j1-I3-9" target="nZfnOuneFazvMQ7j1-I3-37">
          <mxGeometry width="50" height="50" relative="1" as="geometry">
            <mxPoint x="950" y="280" as="sourcePoint" />
            <mxPoint x="1000" y="230" as="targetPoint" />
          </mxGeometry>
        </mxCell>
        <mxCell id="nZfnOuneFazvMQ7j1-I3-41" value="" style="endArrow=none;html=1;rounded=0;entryX=0;entryY=1;entryDx=0;entryDy=0;exitX=1;exitY=0.25;exitDx=0;exitDy=0;" edge="1" parent="1" source="nZfnOuneFazvMQ7j1-I3-9" target="nZfnOuneFazvMQ7j1-I3-36">
          <mxGeometry width="50" height="50" relative="1" as="geometry">
            <mxPoint x="950" y="230" as="sourcePoint" />
            <mxPoint x="1030" y="225" as="targetPoint" />
          </mxGeometry>
        </mxCell>
        <mxCell id="nZfnOuneFazvMQ7j1-I3-42" value="" style="endArrow=none;html=1;rounded=0;exitX=1;exitY=0;exitDx=0;exitDy=0;entryX=0;entryY=1;entryDx=0;entryDy=0;" edge="1" parent="1" source="nZfnOuneFazvMQ7j1-I3-5" target="nZfnOuneFazvMQ7j1-I3-1">
          <mxGeometry width="50" height="50" relative="1" as="geometry">
            <mxPoint x="470" y="390" as="sourcePoint" />
            <mxPoint x="520" y="340" as="targetPoint" />
          </mxGeometry>
        </mxCell>
        <mxCell id="nZfnOuneFazvMQ7j1-I3-43" value="" style="endArrow=none;html=1;rounded=0;entryX=0.5;entryY=1;entryDx=0;entryDy=0;exitX=0.5;exitY=0;exitDx=0;exitDy=0;" edge="1" parent="1" source="nZfnOuneFazvMQ7j1-I3-6" target="nZfnOuneFazvMQ7j1-I3-1">
          <mxGeometry width="50" height="50" relative="1" as="geometry">
            <mxPoint x="1000" y="300" as="sourcePoint" />
            <mxPoint x="1080" y="295" as="targetPoint" />
          </mxGeometry>
        </mxCell>
        <mxCell id="nZfnOuneFazvMQ7j1-I3-45" value="iId" style="rounded=0;whiteSpace=wrap;html=1;fillColor=#60a917;fontColor=#ffffff;strokeColor=#2D7600;" vertex="1" parent="1">
          <mxGeometry x="560" y="570" width="100" height="50" as="geometry" />
        </mxCell>
        <mxCell id="nZfnOuneFazvMQ7j1-I3-47" value="Idescription" style="rounded=0;whiteSpace=wrap;html=1;fillColor=#60a917;fontColor=#ffffff;strokeColor=#2D7600;" vertex="1" parent="1">
          <mxGeometry x="820" y="570" width="100" height="50" as="geometry" />
        </mxCell>
        <mxCell id="nZfnOuneFazvMQ7j1-I3-48" value="Iname" style="rounded=0;whiteSpace=wrap;html=1;fillColor=#60a917;fontColor=#ffffff;strokeColor=#2D7600;" vertex="1" parent="1">
          <mxGeometry x="680" y="570" width="100" height="50" as="geometry" />
        </mxCell>
        <mxCell id="nZfnOuneFazvMQ7j1-I3-49" value="" style="endArrow=none;html=1;rounded=0;exitX=0.5;exitY=0;exitDx=0;exitDy=0;entryX=0.25;entryY=1;entryDx=0;entryDy=0;" edge="1" parent="1" source="nZfnOuneFazvMQ7j1-I3-45" target="nZfnOuneFazvMQ7j1-I3-3">
          <mxGeometry width="50" height="50" relative="1" as="geometry">
            <mxPoint x="580" y="570" as="sourcePoint" />
            <mxPoint x="630" y="520" as="targetPoint" />
          </mxGeometry>
        </mxCell>
        <mxCell id="nZfnOuneFazvMQ7j1-I3-50" value="" style="endArrow=none;html=1;rounded=0;exitX=0.5;exitY=0;exitDx=0;exitDy=0;entryX=0.5;entryY=1;entryDx=0;entryDy=0;" edge="1" parent="1" source="nZfnOuneFazvMQ7j1-I3-48" target="nZfnOuneFazvMQ7j1-I3-3">
          <mxGeometry width="50" height="50" relative="1" as="geometry">
            <mxPoint x="620" y="580" as="sourcePoint" />
            <mxPoint x="650" y="490" as="targetPoint" />
          </mxGeometry>
        </mxCell>
        <mxCell id="nZfnOuneFazvMQ7j1-I3-51" value="" style="endArrow=none;html=1;rounded=0;exitX=0.5;exitY=0;exitDx=0;exitDy=0;entryX=0.75;entryY=1;entryDx=0;entryDy=0;" edge="1" parent="1" source="nZfnOuneFazvMQ7j1-I3-47" target="nZfnOuneFazvMQ7j1-I3-3">
          <mxGeometry width="50" height="50" relative="1" as="geometry">
            <mxPoint x="630" y="590" as="sourcePoint" />
            <mxPoint x="660" y="500" as="targetPoint" />
          </mxGeometry>
        </mxCell>
      </root>
    </mxGraphModel>
  </diagram>
</mxfile>
